<svg id="Capa_1" enable-background="new 0 0 512 512" height="512" viewBox="0 0 512 512" width="512" xmlns="http://www.w3.org/2000/svg"><g><path d="m76 150h30v30h-30z"/><path d="m106 120h30v30h-30z"/><path d="m106 180h30v30h-30z"/><path d="m136 150h30v30h-30z"/><path d="m346 30h30v30h-30z"/><path d="m376 0h30v30h-30z"/><path d="m376 60h30v30h-30z"/><path d="m406 30h30v30h-30z"/><path d="m421 376c0-.529-.112-1.033-.117-1.56-12.455-6.711-28.911-13.44-44.883-13.44-16.494 0-34.33 7.504-47.673 14.954 12.722 7.202 30.401 15.046 47.673 15.046 15.423 0 31.915-6.577 44.914-13.519.004-.498.086-.981.086-1.481z"/><path d="m141.624 364.281c1.7-1.348 42.1-33.281 84.376-33.281 30.807 0 60.436 16.879 75 26.602 14.564-9.723 44.193-26.602 75-26.602 14.236 0 28.121 3.741 40.527 8.595-11.887-53-48.794-98.253-100.527-118.345v-101.25h30v-30h-180v30h30v101.25c-63.252 24.565-105 86.02-105 154.75 0 9.111 1.002 18.027 2.45 26.823zm114.376-57.07-21.211-21.211 21.211-21.211 21.211 21.211z"/><path d="m376 421c-42.275 0-82.676-31.934-84.376-33.281-.307-.264-33.969-26.719-65.624-26.719-26.44 0-56.338 19.277-65.626 26.719l-58.496 46.8c19.517 50.908 56.962 74.555 59.962 77.481h188.32c2.866-3 51.699-33.273 66.713-99.721-12.488 4.922-26.507 8.721-40.873 8.721zm-180 6.211-21.211-21.211 21.211-21.211 21.211 21.211zm60 30-21.211-21.211 21.211-21.211 21.211 21.211z"/><path d="m318.71 0h-125.42l10.003 60h105.414z"/></g></svg>